<svg xmlns="http://www.w3.org/2000/svg" width="228.581" height="42.15" viewBox="0 0 228.581 42.15"><defs><style>.a,.b{fill:#fff;}.a{font-size:30px;font-family:S-CoreDream-6Bold, 'S-Core Dream \36 ';font-weight:700;}</style></defs><g transform="translate(-86 -653)"><g transform="translate(86 653)"><text class="a" transform="translate(69.502 33)"><tspan x="0" y="0">분석하기</tspan></text><g transform="translate(0 1.84)"><path class="b" d="M189.677,180.25a4.874,4.874,0,0,0-.257-1.652,5.538,5.538,0,0,0-5.088-3.611c-2.019,0-4.038,0-6.056,0-.566,0-.6-.044-.61-.6,0-.368.007-.737,0-1.1a5,5,0,0,0-5.016-4.948c-5.125.06-10.254.043-15.381.005a5.015,5.015,0,0,0-4.583,3.277,7.558,7.558,0,0,0-.31,2.512c.01.858,0,.858-.827.859-1.971,0-3.942-.005-5.913,0a5.1,5.1,0,0,0-3.2,1.151,4.959,4.959,0,0,0-2.031,3.608V203.88c.1.338.058.7.164,1.037a5.484,5.484,0,0,0,5.049,3.722q19.394.008,38.789,0a5.419,5.419,0,0,0,5.284-5.274C189.662,195.664,189.683,187.957,189.677,180.25ZM165,203.843a12.021,12.021,0,1,1,12.038-11.98A12.064,12.064,0,0,1,165,203.843Z" transform="translate(-140.406 -168.333)"/><path class="b" d="M158.11,177.452a7.935,7.935,0,1,0,7.954,7.934A7.966,7.966,0,0,0,158.11,177.452Z" transform="translate(-133.511 -161.903)"/></g></g><path class="b" d="M8.672,0l8.672,16.106H0Z" transform="translate(314.581 666.628) rotate(90)"/></g></svg>